<svg version="1.1" xmlns="http://www.w3.org/2000/svg" viewBox="0 0 989.2874603271484 702.984375" width="1978.5749206542969" height="1405.96875" filter="invert(93%) hue-rotate(180deg)">
  <!-- svg-source:excalidraw -->
  
  <defs>
    <style class="style-fonts">
      @font-face {
        font-family: "Virgil";
        src: url("https://excalidraw.com/Virgil.woff2");
      }
      @font-face {
        font-family: "Cascadia";
        src: url("https://excalidraw.com/Cascadia.woff2");
      }
      @font-face {
        font-family: "Assistant";
        src: url("https://excalidraw.com/Assistant-Regular.woff2");
      }
    </style>
    
  </defs>
  <rect x="0" y="0" width="989.2874603271484" height="702.984375" fill="#ffffff"></rect><g transform="translate(596.583984375 10) rotate(0 45.905982971191406 17.5)"><text x="0" y="0" font-family="Virgil, Segoe UI Emoji" font-size="28px" fill="#2f9e44" text-anchor="start" style="white-space: pre;" direction="ltr" dominant-baseline="text-before-edge">w10/v0</text></g><g transform="translate(288.353515625 254.05078125) rotate(0 44.925987243652344 17.5)"><text x="0" y="0" font-family="Virgil, Segoe UI Emoji" font-size="28px" fill="#2f9e44" text-anchor="start" style="white-space: pre;" direction="ltr" dominant-baseline="text-before-edge">w5/v10</text></g><g transform="translate(397.572265625 531.1875) rotate(0 45.233985900878906 17.5)"><text x="0" y="0" font-family="Virgil, Segoe UI Emoji" font-size="28px" fill="#2f9e44" text-anchor="start" style="white-space: pre;" direction="ltr" dominant-baseline="text-before-edge">w1/v60</text></g><g transform="translate(94.501953125 531.65234375) rotate(0 44.925987243652344 17.5)"><text x="0" y="0" font-family="Virgil, Segoe UI Emoji" font-size="28px" fill="#2f9e44" text-anchor="start" style="white-space: pre;" direction="ltr" dominant-baseline="text-before-edge">w1/v50</text></g><g transform="translate(453.724609375 255.7265625) rotate(0 50.399986267089844 17.5)"><text x="0" y="0" font-family="Virgil, Segoe UI Emoji" font-size="28px" fill="#2f9e44" text-anchor="start" style="white-space: pre;" direction="ltr" dominant-baseline="text-before-edge">w6/v40</text></g><g transform="translate(675.240234375 249.6484375) rotate(0 50.97398376464844 17.5)"><text x="0" y="0" font-family="Virgil, Segoe UI Emoji" font-size="28px" fill="#2f9e44" text-anchor="start" style="white-space: pre;" direction="ltr" dominant-baseline="text-before-edge">w4/v30</text></g><g transform="translate(879.271484375 244.6875) rotate(0 50.00798797607422 17.5)"><text x="0" y="0" font-family="Virgil, Segoe UI Emoji" font-size="28px" fill="#2f9e44" text-anchor="start" style="white-space: pre;" direction="ltr" dominant-baseline="text-before-edge">w6/V50</text></g><g transform="translate(323.017578125 151.1171875) rotate(0 32.08998107910156 12.5)"><text x="0" y="0" font-family="Virgil, Segoe UI Emoji" font-size="20px" fill="#1e1e1e" text-anchor="start" style="white-space: pre;" direction="ltr" dominant-baseline="text-before-edge">v10/w5</text></g><g transform="translate(898.912109375 137.21484375) rotate(0 35.77997589111328 12.5)"><text x="0" y="0" font-family="Virgil, Segoe UI Emoji" font-size="20px" fill="#1e1e1e" text-anchor="start" style="white-space: pre;" direction="ltr" dominant-baseline="text-before-edge">v50/w4</text></g><g transform="translate(398.275390625 440.69921875) rotate(0 35.77997589111328 12.5)"><text x="0" y="0" font-family="Virgil, Segoe UI Emoji" font-size="20px" fill="#1e1e1e" text-anchor="start" style="white-space: pre;" direction="ltr" dominant-baseline="text-before-edge">v50/w4</text></g><g transform="translate(663.736328125 144.5859375) rotate(0 36.40998077392578 12.5)"><text x="0" y="0" font-family="Virgil, Segoe UI Emoji" font-size="20px" fill="#1e1e1e" text-anchor="start" style="white-space: pre;" direction="ltr" dominant-baseline="text-before-edge">v30/w6</text></g><g transform="translate(258.744140625 443.0078125) rotate(0 36.40998077392578 12.5)"><text x="0" y="0" font-family="Virgil, Segoe UI Emoji" font-size="20px" fill="#1e1e1e" text-anchor="start" style="white-space: pre;" direction="ltr" dominant-baseline="text-before-edge">v30/w6</text></g><g transform="translate(481.974609375 148.66796875) rotate(0 35.999977111816406 12.5)"><text x="0" y="0" font-family="Virgil, Segoe UI Emoji" font-size="20px" fill="#1e1e1e" text-anchor="start" style="white-space: pre;" direction="ltr" dominant-baseline="text-before-edge">v40/w4</text></g><g transform="translate(102.923828125 447.50390625) rotate(0 35.999977111816406 12.5)"><text x="0" y="0" font-family="Virgil, Segoe UI Emoji" font-size="20px" fill="#1e1e1e" text-anchor="start" style="white-space: pre;" direction="ltr" dominant-baseline="text-before-edge">v40/w4</text></g><g transform="translate(10.673828125 633.8046875) rotate(0 36.40998077392578 12.5)"><text x="0" y="0" font-family="Virgil, Segoe UI Emoji" font-size="20px" fill="#1e1e1e" text-anchor="start" style="white-space: pre;" direction="ltr" dominant-baseline="text-before-edge">v30/w6</text></g><g transform="translate(166.357421875 630.12109375) rotate(0 35.77997589111328 12.5)"><text x="0" y="0" font-family="Virgil, Segoe UI Emoji" font-size="20px" fill="#1e1e1e" text-anchor="start" style="white-space: pre;" direction="ltr" dominant-baseline="text-before-edge">v50/w4</text></g><g stroke-linecap="round"><g transform="translate(618.9877765527426 54.16015625) rotate(0 -119.2523979126247 42.40234375)"><path d="M0 0 C-39.75 14.13, -198.75 70.67, -238.5 84.8 M0 0 C-39.75 14.13, -198.75 70.67, -238.5 84.8" stroke="#1e1e1e" stroke-width="1" fill="none"></path></g><g transform="translate(618.9877765527426 54.16015625) rotate(0 -119.2523979126247 42.40234375)"><path d="M-238.5 84.8 L-227.82 74.28 L-223.57 86.22 L-238.5 84.8" stroke="none" stroke-width="0" fill="#1e1e1e" fill-rule="evenodd"></path><path d="M-238.5 84.8 C-234.64 81, -230.78 77.19, -227.82 74.28 M-238.5 84.8 C-235.56 81.9, -232.61 79, -227.82 74.28 M-227.82 74.28 C-226.93 76.77, -226.05 79.26, -223.57 86.22 M-227.82 74.28 C-226.58 77.77, -225.34 81.26, -223.57 86.22 M-223.57 86.22 C-226.85 85.91, -230.12 85.6, -238.5 84.8 M-223.57 86.22 C-227.37 85.86, -231.18 85.5, -238.5 84.8 M-238.5 84.8 C-238.5 84.8, -238.5 84.8, -238.5 84.8 M-238.5 84.8 C-238.5 84.8, -238.5 84.8, -238.5 84.8" stroke="#1e1e1e" stroke-width="1" fill="none"></path></g></g><mask></mask><g stroke-linecap="round"><g transform="translate(631.2448513433264 51.609375) rotate(0 -45.82452809541337 42.55859375)"><path d="M0 0 C-15.27 14.19, -76.37 70.93, -91.65 85.12 M0 0 C-15.27 14.19, -76.37 70.93, -91.65 85.12" stroke="#1e1e1e" stroke-width="1" fill="none"></path></g><g transform="translate(631.2448513433264 51.609375) rotate(0 -45.82452809541337 42.55859375)"><path d="M-91.65 85.12 L-86 71.22 L-77.37 80.51 L-91.65 85.12" stroke="none" stroke-width="0" fill="#1e1e1e" fill-rule="evenodd"></path><path d="M-91.65 85.12 C-89.76 80.46, -87.86 75.8, -86 71.22 M-91.65 85.12 C-89.66 80.22, -87.67 75.33, -86 71.22 M-86 71.22 C-83.7 73.7, -81.4 76.17, -77.37 80.51 M-86 71.22 C-82.66 74.82, -79.32 78.42, -77.37 80.51 M-77.37 80.51 C-81.65 81.89, -85.92 83.27, -91.65 85.12 M-77.37 80.51 C-83.04 82.34, -88.7 84.17, -91.65 85.12 M-91.65 85.12 C-91.65 85.12, -91.65 85.12, -91.65 85.12 M-91.65 85.12 C-91.65 85.12, -91.65 85.12, -91.65 85.12" stroke="#1e1e1e" stroke-width="1" fill="none"></path></g></g><mask></mask><g stroke-linecap="round"><g transform="translate(644.8484591503798 54.578125) rotate(0 26.27242583668135 40.212890625)"><path d="M0 0 C8.76 13.4, 43.79 67.02, 52.54 80.43 M0 0 C8.76 13.4, 43.79 67.02, 52.54 80.43" stroke="#1e1e1e" stroke-width="1" fill="none"></path></g><g transform="translate(644.8484591503798 54.578125) rotate(0 26.27242583668135 40.212890625)"><path d="M52.54 80.43 L39.8 72.51 L50.42 65.58 L52.54 80.43" stroke="none" stroke-width="0" fill="#1e1e1e" fill-rule="evenodd"></path><path d="M52.54 80.43 C49.65 78.63, 46.76 76.83, 39.8 72.51 M52.54 80.43 C47.52 77.31, 42.5 74.19, 39.8 72.51 M39.8 72.51 C42.6 70.68, 45.4 68.85, 50.42 65.58 M39.8 72.51 C43.86 69.86, 47.92 67.21, 50.42 65.58 M50.42 65.58 C50.89 68.89, 51.37 72.2, 52.54 80.43 M50.42 65.58 C50.96 69.38, 51.51 73.17, 52.54 80.43 M52.54 80.43 C52.54 80.43, 52.54 80.43, 52.54 80.43 M52.54 80.43 C52.54 80.43, 52.54 80.43, 52.54 80.43" stroke="#1e1e1e" stroke-width="1" fill="none"></path></g></g><mask></mask><g stroke-linecap="round"><g transform="translate(659.9143655456792 53.046875) rotate(0 148.22091631143667 36.5859375)"><path d="M0 0 C49.41 12.2, 247.03 60.98, 296.44 73.17 M0 0 C49.41 12.2, 247.03 60.98, 296.44 73.17" stroke="#1e1e1e" stroke-width="1" fill="none"></path></g><g transform="translate(659.9143655456792 53.046875) rotate(0 148.22091631143667 36.5859375)"><path d="M296.44 73.17 L281.72 76.07 L284.76 63.76 L296.44 73.17" stroke="none" stroke-width="0" fill="#1e1e1e" fill-rule="evenodd"></path><path d="M296.44 73.17 C291.14 74.22, 285.84 75.26, 281.72 76.07 M296.44 73.17 C292.27 73.99, 288.09 74.82, 281.72 76.07 M281.72 76.07 C282.75 71.9, 283.78 67.73, 284.76 63.76 M281.72 76.07 C282.44 73.17, 283.15 70.28, 284.76 63.76 M284.76 63.76 C287.34 65.84, 289.92 67.92, 296.44 73.17 M284.76 63.76 C287.36 65.85, 289.95 67.94, 296.44 73.17 M296.44 73.17 C296.44 73.17, 296.44 73.17, 296.44 73.17 M296.44 73.17 C296.44 73.17, 296.44 73.17, 296.44 73.17" stroke="#1e1e1e" stroke-width="1" fill="none"></path></g></g><mask></mask><g stroke-linecap="round"><g transform="translate(359.64496301169993 188.96875) rotate(0 -6.54135162527723 29.873046875)"><path d="M0 0 C-2.18 9.96, -10.9 49.79, -13.08 59.75 M0 0 C-2.18 9.96, -10.9 49.79, -13.08 59.75" stroke="#1e1e1e" stroke-width="1" fill="none"></path></g><g transform="translate(359.64496301169993 188.96875) rotate(0 -6.54135162527723 29.873046875)"><path d="M-13.08 59.75 L-16.37 45.11 L-3.98 47.82 L-13.08 59.75" stroke="none" stroke-width="0" fill="#1e1e1e" fill-rule="evenodd"></path><path d="M-13.08 59.75 C-14.36 54.05, -15.64 48.36, -16.37 45.11 M-13.08 59.75 C-13.89 56.13, -14.7 52.52, -16.37 45.11 M-16.37 45.11 C-12.57 45.94, -8.77 46.77, -3.98 47.82 M-16.37 45.11 C-12.44 45.97, -8.51 46.83, -3.98 47.82 M-3.98 47.82 C-7.25 52.11, -10.52 56.39, -13.08 59.75 M-3.98 47.82 C-6.96 51.72, -9.94 55.62, -13.08 59.75 M-13.08 59.75 C-13.08 59.75, -13.08 59.75, -13.08 59.75 M-13.08 59.75 C-13.08 59.75, -13.08 59.75, -13.08 59.75" stroke="#1e1e1e" stroke-width="1" fill="none"></path></g></g><mask></mask><g stroke-linecap="round"><g transform="translate(523.7533225199504 186.08984375) rotate(0 2.98443094473123 34.31835937500006)"><path d="M0 0 C0.99 11.44, 4.97 57.2, 5.97 68.64 M0 0 C0.99 11.44, 4.97 57.2, 5.97 68.64" stroke="#1e1e1e" stroke-width="1" fill="none"></path></g><g transform="translate(523.7533225199504 186.08984375) rotate(0 2.98443094473123 34.31835937500006)"><path d="M5.97 68.64 L-1.52 55.64 L11.11 54.54 L5.97 68.64" stroke="none" stroke-width="0" fill="#1e1e1e" fill-rule="evenodd"></path><path d="M5.97 68.64 C3 63.49, 0.03 58.33, -1.52 55.64 M5.97 68.64 C3.39 64.16, 0.8 59.68, -1.52 55.64 M-1.52 55.64 C1.48 55.38, 4.49 55.12, 11.11 54.54 M-1.52 55.64 C2.19 55.32, 5.9 55, 11.11 54.54 M11.11 54.54 C9.66 58.51, 8.22 62.47, 5.97 68.64 M11.11 54.54 C9.76 58.24, 8.41 61.94, 5.97 68.64 M5.97 68.64 C5.97 68.64, 5.97 68.64, 5.97 68.64 M5.97 68.64 C5.97 68.64, 5.97 68.64, 5.97 68.64" stroke="#1e1e1e" stroke-width="1" fill="none"></path></g></g><mask></mask><g stroke-linecap="round"><g transform="translate(700.725560305741 173.61328125) rotate(0 16.10164231757608 36.560546875)"><path d="M0 0 C5.37 12.19, 26.84 60.93, 32.2 73.12 M0 0 C5.37 12.19, 26.84 60.93, 32.2 73.12" stroke="#1e1e1e" stroke-width="1" fill="none"></path></g><g transform="translate(700.725560305741 173.61328125) rotate(0 16.10164231757608 36.560546875)"><path d="M32.2 73.12 L20.92 63.23 L32.53 58.12 L32.2 73.12" stroke="none" stroke-width="0" fill="#1e1e1e" fill-rule="evenodd"></path><path d="M32.2 73.12 C29.91 71.11, 27.62 69.1, 20.92 63.23 M32.2 73.12 C27.79 69.25, 23.37 65.38, 20.92 63.23 M20.92 63.23 C24.44 61.68, 27.97 60.13, 32.53 58.12 M20.92 63.23 C23.35 62.17, 25.77 61.1, 32.53 58.12 M32.53 58.12 C32.41 63.46, 32.3 68.79, 32.2 73.12 M32.53 58.12 C32.45 61.54, 32.38 64.96, 32.2 73.12 M32.2 73.12 C32.2 73.12, 32.2 73.12, 32.2 73.12 M32.2 73.12 C32.2 73.12, 32.2 73.12, 32.2 73.12" stroke="#1e1e1e" stroke-width="1" fill="none"></path></g></g><mask></mask><g stroke-linecap="round"><g transform="translate(934.5673756074739 167.71484375) rotate(0 0.8320519934463846 35.611328125)"><path d="M0 0 C0.28 11.87, 1.39 59.35, 1.66 71.22 M0 0 C0.28 11.87, 1.39 59.35, 1.66 71.22" stroke="#1e1e1e" stroke-width="1" fill="none"></path></g><g transform="translate(934.5673756074739 167.71484375) rotate(0 0.8320519934463846 35.611328125)"><path d="M1.66 71.22 L-4.99 57.78 L7.68 57.48 L1.66 71.22" stroke="none" stroke-width="0" fill="#1e1e1e" fill-rule="evenodd"></path><path d="M1.66 71.22 C-0.96 65.93, -3.58 60.64, -4.99 57.78 M1.66 71.22 C0.18 68.22, -1.31 65.21, -4.99 57.78 M-4.99 57.78 C-2.25 57.72, 0.49 57.65, 7.68 57.48 M-4.99 57.78 C-1.44 57.7, 2.12 57.61, 7.68 57.48 M7.68 57.48 C5.82 61.73, 3.96 65.98, 1.66 71.22 M7.68 57.48 C6.34 60.56, 4.99 63.64, 1.66 71.22 M1.66 71.22 C1.66 71.22, 1.66 71.22, 1.66 71.22 M1.66 71.22 C1.66 71.22, 1.66 71.22, 1.66 71.22" stroke="#1e1e1e" stroke-width="1" fill="none"></path></g></g><mask></mask><g stroke-linecap="round"><g transform="translate(317.36495355267016 299.73046875) rotate(0 -78.74971189931216 70.5703125)"><path d="M0 0 C-26.25 23.52, -131.25 117.62, -157.5 141.14 M0 0 C-26.25 23.52, -131.25 117.62, -157.5 141.14" stroke="#1e1e1e" stroke-width="1" fill="none"></path></g><g transform="translate(317.36495355267016 299.73046875) rotate(0 -78.74971189931216 70.5703125)"><path d="M-157.5 141.14 L-151.61 127.35 L-143.14 136.79 L-157.5 141.14" stroke="none" stroke-width="0" fill="#1e1e1e" fill-rule="evenodd"></path><path d="M-157.5 141.14 C-155.97 137.56, -154.44 133.97, -151.61 127.35 M-157.5 141.14 C-155.98 137.58, -154.46 134.02, -151.61 127.35 M-151.61 127.35 C-148.95 130.31, -146.3 133.26, -143.14 136.79 M-151.61 127.35 C-149.68 129.5, -147.75 131.65, -143.14 136.79 M-143.14 136.79 C-146.2 137.72, -149.26 138.64, -157.5 141.14 M-143.14 136.79 C-148.09 138.29, -153.04 139.79, -157.5 141.14 M-157.5 141.14 C-157.5 141.14, -157.5 141.14, -157.5 141.14 M-157.5 141.14 C-157.5 141.14, -157.5 141.14, -157.5 141.14" stroke="#1e1e1e" stroke-width="1" fill="none"></path></g></g><mask></mask><g stroke-linecap="round"><g transform="translate(308.3673569371649 302.19921875) rotate(0 -3.2259870570605926 67.361328125)"><path d="M0 0 C-1.08 22.45, -5.38 112.27, -6.45 134.72 M0 0 C-1.08 22.45, -5.38 112.27, -6.45 134.72" stroke="#1e1e1e" stroke-width="1" fill="none"></path></g><g transform="translate(308.3673569371649 302.19921875) rotate(0 -3.2259870570605926 67.361328125)"><path d="M-6.45 134.72 L-12.13 120.84 L0.53 121.45 L-6.45 134.72" stroke="none" stroke-width="0" fill="#1e1e1e" fill-rule="evenodd"></path><path d="M-6.45 134.72 C-8.59 129.51, -10.72 124.29, -12.13 120.84 M-6.45 134.72 C-8.15 130.58, -9.84 126.44, -12.13 120.84 M-12.13 120.84 C-8.51 121.01, -4.9 121.19, 0.53 121.45 M-12.13 120.84 C-8.21 121.03, -4.29 121.22, 0.53 121.45 M0.53 121.45 C-0.96 124.28, -2.45 127.12, -6.45 134.72 M0.53 121.45 C-0.99 124.33, -2.51 127.22, -6.45 134.72 M-6.45 134.72 C-6.45 134.72, -6.45 134.72, -6.45 134.72 M-6.45 134.72 C-6.45 134.72, -6.45 134.72, -6.45 134.72" stroke="#1e1e1e" stroke-width="1" fill="none"></path></g></g><mask></mask><g stroke-linecap="round"><g transform="translate(303.97775704437936 299.43359375) rotate(0 72.35383139643159 66.91015625)"><path d="M0 0 C24.12 22.3, 120.59 111.52, 144.71 133.82 M0 0 C24.12 22.3, 120.59 111.52, 144.71 133.82" stroke="#1e1e1e" stroke-width="1" fill="none"></path></g><g transform="translate(303.97775704437936 299.43359375) rotate(0 72.35383139643159 66.91015625)"><path d="M144.71 133.82 L130.42 129.24 L139.03 119.94 L144.71 133.82" stroke="none" stroke-width="0" fill="#1e1e1e" fill-rule="evenodd"></path><path d="M144.71 133.82 C141.3 132.73, 137.88 131.63, 130.42 129.24 M144.71 133.82 C139.68 132.21, 134.65 130.6, 130.42 129.24 M130.42 129.24 C132.2 127.32, 133.98 125.4, 139.03 119.94 M130.42 129.24 C133.77 125.63, 137.11 122.01, 139.03 119.94 M139.03 119.94 C140.9 124.5, 142.76 129.06, 144.71 133.82 M139.03 119.94 C141.1 124.99, 143.17 130.05, 144.71 133.82 M144.71 133.82 C144.71 133.82, 144.71 133.82, 144.71 133.82 M144.71 133.82 C144.71 133.82, 144.71 133.82, 144.71 133.82" stroke="#1e1e1e" stroke-width="1" fill="none"></path></g></g><mask></mask><g stroke-linecap="round"><g transform="translate(250.326171875 435.953125) rotate(0 45.990234375 23.720703125)"><path d="M0 0 C15.33 7.91, 76.65 39.53, 91.98 47.44 M0 0 C15.33 7.91, 76.65 39.53, 91.98 47.44" stroke="#e03131" stroke-width="4" fill="none"></path></g></g><mask></mask><g stroke-linecap="round"><g transform="translate(249.009765625 477.25390625) rotate(0 45.208984375 -20.744140625)"><path d="M0 0 C15.07 -6.91, 75.35 -34.57, 90.42 -41.49 M0 0 C15.07 -6.91, 75.35 -34.57, 90.42 -41.49" stroke="#e03131" stroke-width="4" fill="none"></path></g></g><mask></mask><g stroke-linecap="round"><g transform="translate(137.02243966365495 478.6640625) rotate(0 2.0877242522258257 23.759765625)"><path d="M0 0 C0.7 7.92, 3.48 39.6, 4.18 47.52 M0 0 C0.7 7.92, 3.48 39.6, 4.18 47.52" stroke="#1e1e1e" stroke-width="1" fill="none"></path></g><g transform="translate(137.02243966365495 478.6640625) rotate(0 2.0877242522258257 23.759765625)"><path d="M4.18 47.52 L-3.33 34.53 L9.3 33.42 L4.18 47.52" stroke="none" stroke-width="0" fill="#1e1e1e" fill-rule="evenodd"></path><path d="M4.18 47.52 C1.36 42.65, -1.45 37.79, -3.33 34.53 M4.18 47.52 C2.21 44.11, 0.24 40.7, -3.33 34.53 M-3.33 34.53 C-0.48 34.28, 2.37 34.03, 9.3 33.42 M-3.33 34.53 C0.06 34.23, 3.44 33.94, 9.3 33.42 M9.3 33.42 C7.47 38.46, 5.64 43.49, 4.18 47.52 M9.3 33.42 C7.72 37.77, 6.14 42.11, 4.18 47.52 M4.18 47.52 C4.18 47.52, 4.18 47.52, 4.18 47.52 M4.18 47.52 C4.18 47.52, 4.18 47.52, 4.18 47.52" stroke="#1e1e1e" stroke-width="1" fill="none"></path></g></g><mask></mask><g stroke-linecap="round"><g transform="translate(440.14249969138973 473.2617187500001) rotate(0 2.495052833394311 24.728515624999943)"><path d="M0 0 C0.83 8.24, 4.16 41.21, 4.99 49.46 M0 0 C0.83 8.24, 4.16 41.21, 4.99 49.46" stroke="#1e1e1e" stroke-width="1" fill="none"></path></g><g transform="translate(440.14249969138973 473.2617187500001) rotate(0 2.495052833394311 24.728515624999943)"><path d="M4.99 49.46 L-2.68 36.57 L9.93 35.29 L4.99 49.46" stroke="none" stroke-width="0" fill="#1e1e1e" fill-rule="evenodd"></path><path d="M4.99 49.46 C2.27 44.89, -0.44 40.33, -2.68 36.57 M4.99 49.46 C2.15 44.68, -0.69 39.91, -2.68 36.57 M-2.68 36.57 C0.89 36.21, 4.45 35.85, 9.93 35.29 M-2.68 36.57 C1.54 36.14, 5.77 35.71, 9.93 35.29 M9.93 35.29 C8.37 39.76, 6.82 44.22, 4.99 49.46 M9.93 35.29 C8.4 39.68, 6.87 44.07, 4.99 49.46 M4.99 49.46 C4.99 49.46, 4.99 49.46, 4.99 49.46 M4.99 49.46 C4.99 49.46, 4.99 49.46, 4.99 49.46" stroke="#1e1e1e" stroke-width="1" fill="none"></path></g></g><mask></mask><g stroke-linecap="round"><g transform="translate(448.533203125 576.046875) rotate(0 -0.30078125 32.009765625)"><path d="M0 0 C-0.1 10.67, -0.5 53.35, -0.6 64.02 M0 0 C-0.1 10.67, -0.5 53.35, -0.6 64.02" stroke="#1e1e1e" stroke-width="1" fill="none"></path></g><g transform="translate(448.533203125 576.046875) rotate(0 -0.30078125 32.009765625)"><path d="M-0.6 64.02 L-6.81 50.37 L5.87 50.49 L-0.6 64.02" stroke="none" stroke-width="0" fill="#1e1e1e" fill-rule="evenodd"></path><path d="M-0.6 64.02 C-2.12 60.68, -3.64 57.34, -6.81 50.37 M-0.6 64.02 C-2.31 60.26, -4.02 56.5, -6.81 50.37 M-6.81 50.37 C-2.26 50.41, 2.3 50.45, 5.87 50.49 M-6.81 50.37 C-1.75 50.41, 3.31 50.46, 5.87 50.49 M5.87 50.49 C3.44 55.56, 1.02 60.63, -0.6 64.02 M5.87 50.49 C4.48 53.39, 3.09 56.29, -0.6 64.02 M-0.6 64.02 C-0.6 64.02, -0.6 64.02, -0.6 64.02 M-0.6 64.02 C-0.6 64.02, -0.6 64.02, -0.6 64.02" stroke="#1e1e1e" stroke-width="1" fill="none"></path></g></g><mask></mask><g stroke-linecap="round"><g transform="translate(421.5703125 655.9765625) rotate(0 28.37109375 17.19140625)"><path d="M0 0 C9.46 5.73, 47.29 28.65, 56.74 34.38 M0 0 C9.46 5.73, 47.29 28.65, 56.74 34.38" stroke="#e03131" stroke-width="4" fill="none"></path></g></g><mask></mask><g stroke-linecap="round"><g transform="translate(10 630.7578125) rotate(0 28.37109375 17.19140625)"><path d="M0 0 C9.46 5.73, 47.29 28.65, 56.74 34.38 M0 0 C9.46 5.73, 47.29 28.65, 56.74 34.38" stroke="#e03131" stroke-width="4" fill="none"></path></g></g><mask></mask><g stroke-linecap="round"><g transform="translate(172.15234375 624.5078125) rotate(0 28.37109375 17.19140625)"><path d="M0 0 C9.46 5.73, 47.29 28.65, 56.74 34.38 M0 0 C9.46 5.73, 47.29 28.65, 56.74 34.38" stroke="#e03131" stroke-width="4" fill="none"></path></g></g><mask></mask><g stroke-linecap="round"><g transform="translate(424.20703125 692.984375) rotate(0 30.19140625 -17.193359375)"><path d="M0 0 C10.06 -5.73, 50.32 -28.66, 60.38 -34.39 M0 0 C10.06 -5.73, 50.32 -28.66, 60.38 -34.39" stroke="#e03131" stroke-width="4" fill="none"></path></g></g><mask></mask><g stroke-linecap="round"><g transform="translate(12.63671875 667.765625) rotate(0 30.19140625 -17.193359375)"><path d="M0 0 C10.06 -5.73, 50.32 -28.66, 60.38 -34.39 M0 0 C10.06 -5.73, 50.32 -28.66, 60.38 -34.39" stroke="#e03131" stroke-width="4" fill="none"></path></g></g><mask></mask><g stroke-linecap="round"><g transform="translate(174.7890625 661.515625) rotate(0 30.19140625 -17.193359375)"><path d="M0 0 C10.06 -5.73, 50.32 -28.66, 60.38 -34.39 M0 0 C10.06 -5.73, 50.32 -28.66, 60.38 -34.39" stroke="#e03131" stroke-width="4" fill="none"></path></g></g><mask></mask><g stroke-linecap="round" transform="translate(287.517578125 137.453125) rotate(0 78.525390625 23.42578125)"><path d="M157.05 23.43 C157.05 24.37, 156.86 25.32, 156.48 26.25 C156.1 27.18, 155.52 28.12, 154.77 29.03 C154.01 29.95, 153.07 30.85, 151.95 31.73 C150.83 32.61, 149.52 33.48, 148.06 34.31 C146.59 35.15, 144.94 35.96, 143.15 36.73 C141.36 37.51, 139.39 38.26, 137.3 38.96 C135.21 39.66, 132.96 40.34, 130.6 40.96 C128.24 41.58, 125.73 42.17, 123.13 42.7 C120.54 43.24, 117.81 43.73, 115.02 44.17 C112.22 44.61, 109.32 45, 106.37 45.33 C103.42 45.66, 100.38 45.95, 97.32 46.17 C94.25 46.4, 91.12 46.57, 87.99 46.68 C84.86 46.79, 81.68 46.85, 78.53 46.85 C75.37 46.85, 72.19 46.79, 69.06 46.68 C65.93 46.57, 62.8 46.4, 59.73 46.17 C56.67 45.95, 53.63 45.66, 50.68 45.33 C47.73 45, 44.83 44.61, 42.03 44.17 C39.24 43.73, 36.51 43.24, 33.92 42.7 C31.32 42.17, 28.82 41.58, 26.45 40.96 C24.09 40.34, 21.84 39.66, 19.75 38.96 C17.66 38.26, 15.69 37.51, 13.9 36.73 C12.11 35.96, 10.46 35.15, 8.99 34.31 C7.53 33.48, 6.22 32.61, 5.1 31.73 C3.98 30.85, 3.04 29.95, 2.28 29.03 C1.53 28.12, 0.95 27.18, 0.57 26.25 C0.19 25.32, 0 24.37, 0 23.43 C0 22.48, 0.19 21.54, 0.57 20.6 C0.95 19.67, 1.53 18.73, 2.28 17.82 C3.04 16.91, 3.98 16, 5.1 15.12 C6.22 14.24, 7.53 13.37, 8.99 12.54 C10.46 11.71, 12.11 10.89, 13.9 10.12 C15.69 9.34, 17.66 8.6, 19.75 7.89 C21.84 7.19, 24.09 6.52, 26.45 5.89 C28.82 5.27, 31.32 4.68, 33.92 4.15 C36.51 3.61, 39.24 3.12, 42.03 2.68 C44.83 2.25, 47.73 1.86, 50.68 1.52 C53.63 1.19, 56.67 0.91, 59.73 0.68 C62.8 0.46, 65.93 0.28, 69.06 0.17 C72.19 0.06, 75.37 0, 78.53 0 C81.68 0, 84.86 0.06, 87.99 0.17 C91.12 0.28, 94.25 0.46, 97.32 0.68 C100.38 0.91, 103.42 1.19, 106.37 1.52 C109.32 1.86, 112.22 2.25, 115.02 2.68 C117.81 3.12, 120.54 3.61, 123.13 4.15 C125.73 4.68, 128.24 5.27, 130.6 5.89 C132.96 6.52, 135.21 7.19, 137.3 7.89 C139.39 8.6, 141.36 9.34, 143.15 10.12 C144.94 10.89, 146.59 11.71, 148.06 12.54 C149.52 13.37, 150.83 14.24, 151.95 15.12 C153.07 16, 154.01 16.91, 154.77 17.82 C155.52 18.73, 156.1 19.67, 156.48 20.6 C156.86 21.54, 157.05 22.48, 157.05 23.43" stroke="#1971c2" stroke-width="1" fill="none"></path></g><g stroke-linecap="round"><g transform="translate(119.361328125 576.25) rotate(0 -28.08984375 26.728515625)"><path d="M0 0 C-9.36 8.91, -46.82 44.55, -56.18 53.46 M0 0 C-9.36 8.91, -46.82 44.55, -56.18 53.46" stroke="#1e1e1e" stroke-width="1" fill="none"></path></g><g transform="translate(119.361328125 576.25) rotate(0 -28.08984375 26.728515625)"><path d="M-56.18 53.46 L-50.7 39.49 L-41.96 48.68 L-56.18 53.46" stroke="none" stroke-width="0" fill="#1e1e1e" fill-rule="evenodd"></path><path d="M-56.18 53.46 C-54.83 50.03, -53.49 46.6, -50.7 39.49 M-56.18 53.46 C-54.17 48.33, -52.16 43.21, -50.7 39.49 M-50.7 39.49 C-48.79 41.5, -46.88 43.51, -41.96 48.68 M-50.7 39.49 C-48.07 42.26, -45.44 45.03, -41.96 48.68 M-41.96 48.68 C-45.63 49.91, -49.29 51.14, -56.18 53.46 M-41.96 48.68 C-47.59 50.57, -53.23 52.46, -56.18 53.46 M-56.18 53.46 C-56.18 53.46, -56.18 53.46, -56.18 53.46 M-56.18 53.46 C-56.18 53.46, -56.18 53.46, -56.18 53.46" stroke="#1e1e1e" stroke-width="1" fill="none"></path></g></g><mask></mask><g stroke-linecap="round"><g transform="translate(121.888671875 579.1796875) rotate(0 36.203125 20.693359375)"><path d="M0 0 C12.07 6.9, 60.34 34.49, 72.41 41.39 M0 0 C12.07 6.9, 60.34 34.49, 72.41 41.39" stroke="#1e1e1e" stroke-width="1" fill="none"></path></g><g transform="translate(121.888671875 579.1796875) rotate(0 36.203125 20.693359375)"><path d="M72.41 41.39 L57.46 40.14 L63.75 29.14 L72.41 41.39" stroke="none" stroke-width="0" fill="#1e1e1e" fill-rule="evenodd"></path><path d="M72.41 41.39 C67.84 41.01, 63.28 40.63, 57.46 40.14 M72.41 41.39 C67.66 40.99, 62.92 40.6, 57.46 40.14 M57.46 40.14 C58.81 37.78, 60.16 35.41, 63.75 29.14 M57.46 40.14 C59.87 35.92, 62.29 31.7, 63.75 29.14 M63.75 29.14 C66.29 32.73, 68.83 36.33, 72.41 41.39 M63.75 29.14 C66.13 32.51, 68.51 35.88, 72.41 41.39 M72.41 41.39 C72.41 41.39, 72.41 41.39, 72.41 41.39 M72.41 41.39 C72.41 41.39, 72.41 41.39, 72.41 41.39" stroke="#1e1e1e" stroke-width="1" fill="none"></path></g></g><mask></mask></svg>